<svg xmlns="http://www.w3.org/2000/svg" viewBox="0 0 512 512">
  <defs>
    <linearGradient id="bg" x1="0" y1="0" x2="1" y2="1">
      <stop offset="0%" stop-color="#7C4DFF"/>
      <stop offset="100%" stop-color="#6200EE"/>
    </linearGradient>
  </defs>
  <rect width="512" height="512" rx="96" fill="url(#bg)"/>
  <g transform="translate(256,256)">
    <path d="M-20,-130 C-115,-130 -190,-55 -190,40 C-190,98 -162,150 -120,180 L-140,250 L-68,226 C-42,244 -12,254 20,254 C115,254 190,179 190,84 C190,-11 115,-86 20,-86 C-10,-86 -40,-78 -68,-64 Z" fill="white" opacity="0.08"/>
  </g>
  <path d="M256 400c-37.5 0-72.8-10.5-103-28.6L96 390l18.8-61.8C78.8 298 64 268 64 234 64 156 126 94 256 94s192 62 192 140-86 140-192 140zm0-320C145.6 80 48 149.6 48 234c0 37.6 15.6 71.6 40.8 99.2L72 380l52.2-16.2C154 382 189 396 256 396c110.4 0 192-69.6 192-154S366.4 80 256 80zm50.4 114.4c-2.8.8-6.4 1.6-9.6.8C289.6 192 278 188 268 184c-6.4-4-12.8-8.4-19.2-12.8-4.4-3.2-9.2-6.8-13.2-10.8-2-2-4-4.4-5.2-7.2-.8-1.6-1.6-2.8-1.6-4.4 0-1.2.4-2.8 1.6-4 3.2-3.6 6-7.6 8.8-11.6 1.2-2 3.2-3.2 5.6-3.6 2-.4 4-.4 5.6.4l2 1.2c6.8 3.6 13.2 7.6 19.6 11.2 2.4 1.2 4.8 2.4 7.2 3.6 1.6.8 3.2 1.6 4.4 3.2 1.6 1.6 3.2 4 3.2 6.4-.4 2.8-2 5.6-3.2 8-.8 1.6-2 3.2-3.6 4.8-1.2 1.2-2.8 2.4-4 3.6-4.4 4.8-2.4 10 2 13.2 6.8 4.8 14 9.2 21.2 12.8 2.8 1.2 4.4 4.4 4 7.2 0 3.2-2 6.4-4 8.8-1.2 1.6-3.2 3.2-4.8 4.4-1.2 1.6-2.8 2.8-4.4 4z" fill="white"/>
</svg>
