<svg xmlns="http://www.w3.org/2000/svg" viewBox="0 0 512 512">
  <defs>
    <linearGradient id="bg" x1="0" y1="0" x2="1" y2="1">
      <stop offset="0%" stop-color="#6200EE"/>
      <stop offset="100%" stop-color="#3700B3"/>
    </linearGradient>
  </defs>
  <rect width="512" height="512" rx="80" fill="url(#bg)"/>
  <path d="M376 40H136c-35.2 0-64 28.8-64 64v304c0 35.2 28.8 64 64 64h240c35.2 0 64-28.8 64-64V104c0-35.2-28.8-64-64-64zM256 440c-24 0-44-20-44-44s20-44 44-44 44 20 44 44-20 44-44 44zm96-128H160V128h192v184z" fill="white"/>
</svg>
