<svg xmlns="http://www.w3.org/2000/svg" viewBox="0 0 192 192">
  <defs>
    <linearGradient id="bg" x1="0" y1="0" x2="1" y2="1">
      <stop offset="0%" stop-color="#7C4DFF"/>
      <stop offset="100%" stop-color="#6200EE"/>
    </linearGradient>
  </defs>
  <rect width="192" height="192" rx="36" fill="url(#bg)"/>
  <g transform="translate(96,96)">
    <path d="M-6,-46 C-40,-46 -68,-18 -68,16 C-68,36 -58,54 -44,66 L-52,92 L-26,84 C-14,90 0,92 14,92 C48,92 76,64 76,30 C76,-4 48,-32 14,-32 C4,-32 -6,-30 -14,-26 Z" fill="white" opacity="0.12"/>
  </g>
  <path d="M96 156c-13.5 0-26.2-3.8-37-10.3L36 152l6.9-22.2C35.3 118.5 31 106.4 31 93.5 31 59.2 60.2 30 96 30s65 29.2 65 63.5-29.2 63.5-65 63.5zm0-113.5c-27.8 0-50.5 22.4-50.5 50 0 11.8 4.1 22.7 11 31.4l-3.6 11.6 12-3.5c8.6 5.3 18.7 8.3 29.5 8.3h.4c27.7 0 50.2-22.5 50.2-50.2S123.7 42.5 96 42.5zm28.4 65.6c-1.5.8-3.6 1.2-5.2.6l-.2-.1c-3.9-1.3-7.8-3.2-11.3-5.4-2.3-1.4-4.7-2.9-6.9-4.5-1.6-1.2-3.4-2.5-4.8-4-.7-.8-1.4-1.6-1.9-2.5-.3-.5-.5-1-.5-1.5 0-.5.2-1 .6-1.5 1.1-1.3 2.1-2.7 3.1-4.1.5-.7 1.2-1.1 2-1.3.7-.2 1.4-.1 2 .2l.7.4c2.4 1.3 4.7 2.6 7.1 3.9.8.5 1.7.9 2.5 1.4.5.3 1 .6 1.5 1 .7.6 1.2 1.4 1.2 2.4 0 1-.6 2.1-1.1 2.9-.4.6-.8 1.2-1.3 1.7-.5.5-1 .9-1.5 1.4-1.5 1.7-.8 3.5.8 4.6 2.5 1.6 5 3.2 7.7 4.5 1 .5 1.5 1.5 1.4 2.6 0 1.2-.7 2.3-1.4 3.1-.5.6-1.1 1.1-1.7 1.6-.5.5-1.1.9-1.6 1.4z" fill="white"/>
</svg>
